<svg xmlns:rdf="http://www.w3.org/1999/02/22-rdf-syntax-ns#" xmlns="http://www.w3.org/2000/svg" height="107" shape-rendering="geometricPrecision" width="130" version="1.1" xmlns:cc="http://creativecommons.org/ns#" xmlns:dc="http://purl.org/dc/elements/1.1/" preserveAspectRatio="xMidYMid">
<title>phenanthrene</title>
<metadata>
<rdf:RDF>
<cc:Work rdf:about="">
<dc:format>image/svg+xml</dc:format>
<dc:type rdf:resource="http://purl.org/dc/dcmitype/StillImage"/>
<dc:title>phenanthrene</dc:title>
<cc:license rdf:resource="http://creativecommons.org/licenses/publicdomain/"/>
</cc:Work>
<cc:License rdf:about="http://creativecommons.org/licenses/publicdomain/">
<cc:permits rdf:resource="http://creativecommons.org/ns#Reproduction"/>
<cc:permits rdf:resource="http://creativecommons.org/ns#Distribution"/>
<cc:permits rdf:resource="http://creativecommons.org/ns#DerivativeWorks"/>
</cc:License>
</rdf:RDF>
</metadata>
<path d="M102.375,2.8125,76.8125,17.5625,76.8125,46.375,52.46875,60.4375,27.53125,46.03125,2,60.75,2,90.25,27.53125,105,52.46875,90.59375,77.40625,105,102.96875,90.25,102.96875,61.46875,127.90625,47.0625,127.90625,17.5625,102.375,2.8125zm0,1.375,24.3125,14.0625,0,28.125-24.3125,14.0625-24.34375-14.0625,0-28.125,24.34375-14.0625zm0.28125,4.78125-0.59375,1.0625,19.75,11.375,0.59375-1.03125-19.75-11.40625zm-20.65625,11.9375,0,22.8125,1.1875,0,0-22.8125-1.1875,0zm39.8125,22.28125-19.75,11.40625,0.59375,1.0625,19.75-11.40625-0.59375-1.0625zm-94.28125,4.21875,24.34375,14.0625,0,28.09375-24.34375,14.0625-24.34375-14.0625,0-28.09375,24.34375-14.0625zm49.875,0,24.34375,14.0625,0,28.09375-24.34375,14.0625-24.3125-14.0625,0-28.09375,24.3125-14.0625zm-49.59375,4.78125-0.59375,1.03125,19.78125,11.40625,0.59375-1.03125-19.78125-11.40625zm-20.65625,11.90625,0,22.8125,1.21875,0,0-22.8125-1.21875,0zm39.84375,22.3125-19.78125,11.40625,0.59375,1.03125,19.78125-11.40625-0.59375-1.03125zm49.875,0-19.78125,11.40625,0.625,1.03125,19.75-11.40625-0.59375-1.03125z" fill="#000"/>
</svg>
